<svg height="57.038" viewBox="0 0 171.557 57.038" width="171.557" xmlns="http://www.w3.org/2000/svg"><path d="m608.92 59.243v19.957h-11.769v-19.242c0-5.725-3.5-7.951-6.442-7.951-3.18 0-7.154 1.67-7.154 7.872v19.321h-11.77v-37.134h11.77v6.679c1.271-5.249 7.154-7.634 10.655-7.634 9.86 0 14.709 6.758 14.709 18.131" fill="#2c1d4c" transform="translate(-571.75 -40.231)"/><path d="m616.6 60.673c0-11.769 9.543-19.561 20.119-19.561s20.2 7.792 20.2 19.561c0 11.69-9.622 19.482-20.2 19.482s-20.119-7.792-20.119-19.482m28.308 0c0-5.089-3.656-8.667-8.189-8.667s-8.191 3.578-8.191 8.667 3.658 8.588 8.191 8.588 8.189-3.5 8.189-8.588" fill="#2c1d4c" transform="translate(-572.194 -40.231)"/><path d="m688.113 42.076h12.8l-15.743 37.135h-10.257l-15.745-37.135h12.8l8.111 22.105z" fill="#2c1d4c" transform="translate(-572.616 -40.24)"/><path d="m732.842 42.066h11.768v37.134h-11.768v-4.69a14.666 14.666 0 0 1 -11.767 5.646c-10.419 0-17.734-7.872-17.734-19.482 0-11.689 7.315-19.561 17.892-19.561a14.615 14.615 0 0 1 11.609 5.407zm-.4 18.607a8.57 8.57 0 0 0 -8.588-8.667 8.406 8.406 0 0 0 -8.508 8.667 8.5 8.5 0 0 0 8.588 8.588 8.636 8.636 0 0 0 8.508-8.588" fill="#2c1d4c" transform="translate(-573.053 -40.231)"/><path d="m644.212 60a7.168 7.168 0 1 0 -7.167 7.166 7.167 7.167 0 0 0 7.167-7.166m-16.388 0a9.232 9.232 0 0 1 14.376-7.642c2.607 1.763 10.142-2.369 10.142-6.6a5.53 5.53 0 1 1 3.748 5.242c-3.277-1.116-10.88 2.9-10.011 7.149a9.326 9.326 0 0 1 0 3.717c-.854 4.16 6.811 8.24 10.011 7.15a5.535 5.535 0 1 1 -3.747 5.238c0-4.058-7.212-8.578-10.142-6.6a9.216 9.216 0 0 1 -14.377-7.654" fill="#f3cd00" fill-rule="evenodd" transform="translate(-572.305 -40.222)"/><g fill="#2c1d4c"><path d="m578.387 91.616a2.99 2.99 0 0 1 -2.79 3.255 2.313 2.313 0 0 1 -1.936-.8h-.026v3.52h-1.885v-8.979h1.735v.8h.025a2.382 2.382 0 0 1 1.873-.955 2.931 2.931 0 0 1 3.004 3.159zm-3.394 1.6a1.547 1.547 0 1 0 -1.508-1.547 1.43 1.43 0 0 0 1.508 1.544z" transform="translate(-571.75 -40.7)"/><path d="m582.82 88.462c1.182 0 2.816.729 2.816 3.268v.528h-4.374a1.4 1.4 0 0 0 1.421 1.181 1.6 1.6 0 0 0 1.344-.742l1.32.968a3.339 3.339 0 0 1 -2.576 1.206 3.212 3.212 0 1 1 .049-6.41zm.931 2.514a1.126 1.126 0 0 0 -1.169-1.156 1.257 1.257 0 0 0 -1.32 1.156z" transform="translate(-571.826 -40.7)"/><path d="m586.852 88.612h1.886v.98h.025a1.871 1.871 0 0 1 1.772-1.131 2.47 2.47 0 0 1 .616.062v1.723a2.869 2.869 0 0 0 -.8-.126c-1.346 0-1.609.716-1.609 1.973v2.627h-1.886z" transform="translate(-571.9 -40.7)"/><path d="m600.423 89.417h.025v-.8h1.735v5.656c0 2.288-1.257 3.469-3.532 3.469a4.76 4.76 0 0 1 -3.067-.892l1.044-1.559a3.06 3.06 0 0 0 1.986.792c.943 0 1.684-.465 1.684-1.47v-.616h-.026a2.176 2.176 0 0 1 -1.735.8 2.941 2.941 0 0 1 -2.991-3.154 2.974 2.974 0 0 1 2.79-3.18 2.5 2.5 0 0 1 2.087.954zm-1.483 3.721a1.508 1.508 0 1 0 -1.509-1.509 1.513 1.513 0 0 0 1.509 1.509z" transform="translate(-571.986 -40.7)"/><path d="m607.024 88.462c1.181 0 2.815.729 2.815 3.268v.528h-4.374a1.4 1.4 0 0 0 1.421 1.181 1.6 1.6 0 0 0 1.345-.742l1.32.968a3.336 3.336 0 0 1 -2.576 1.206 3.212 3.212 0 1 1 .05-6.41zm.93 2.514a1.126 1.126 0 0 0 -1.169-1.156 1.257 1.257 0 0 0 -1.32 1.156z" transform="translate(-572.065 -40.7)"/><path d="m611.055 94.721v-6.109h1.81v.83h.025a1.979 1.979 0 0 1 1.785-.98c1.546 0 2.262.792 2.262 2.8v3.456h-1.885v-3.139c0-1.081-.327-1.457-.98-1.457-.754 0-1.132.452-1.132 1.5v3.1z" transform="translate(-572.139 -40.7)"/><path d="m617.743 90.1v-1.5h1.207v-1.81h1.885v1.81h1.659v1.5h-1.659v2.15c0 .753.264 1.018.893 1.018a1.276 1.276 0 0 0 .766-.176v1.571a4.047 4.047 0 0 1 -1.32.188c-1.47 0-2.225-.7-2.225-1.8v-2.951z" transform="translate(-572.206 -40.683)"/><path d="m626.759 88.462c1.181 0 2.816.729 2.816 3.268v.528h-4.375a1.4 1.4 0 0 0 1.42 1.181 1.605 1.605 0 0 0 1.346-.742l1.32.968a3.339 3.339 0 0 1 -2.577 1.206 3.212 3.212 0 1 1 .051-6.41zm.93 2.514a1.126 1.126 0 0 0 -1.168-1.156 1.256 1.256 0 0 0 -1.32 1.156z" transform="translate(-572.261 -40.7)"/><path d="m639.923 89.279-1.244 1.307a1.185 1.185 0 0 0 -.931-.464 1.547 1.547 0 0 0 0 3.092 1.212 1.212 0 0 0 .931-.465l1.244 1.307a3.063 3.063 0 0 1 -2.174.817 3.21 3.21 0 1 1 0-6.41 3.065 3.065 0 0 1 2.174.816z" transform="translate(-572.37 -40.7)"/><path d="m640.663 94.689v-9.5h1.885v4.221h.026a1.782 1.782 0 0 1 1.709-.98c1.635 0 2.262.9 2.262 2.828v3.432h-1.885v-3.1c0-1.144-.34-1.5-.98-1.5-.754 0-1.132.452-1.132 1.5v3.1z" transform="translate(-572.433 -40.667)"/><path d="m651.2 88.462c1.182 0 2.816.729 2.816 3.268v.528h-4.374a1.4 1.4 0 0 0 1.421 1.181 1.6 1.6 0 0 0 1.345-.742l1.32.968a3.34 3.34 0 0 1 -2.577 1.206 3.212 3.212 0 1 1 .051-6.41zm.931 2.514a1.126 1.126 0 0 0 -1.169-1.156 1.257 1.257 0 0 0 -1.32 1.156z" transform="translate(-572.503 -40.7)"/><path d="m658.393 90.087v-1.508h1.244v-1.144c0-1.509.566-2.4 2.388-2.4a4.575 4.575 0 0 1 1.107.113l-.088 1.6a1.731 1.731 0 0 0 -.616-.126c-.692 0-.9.276-.9 1v.955h1.4v1.509h-1.4v4.6h-1.886v-4.6z" transform="translate(-572.608 -40.666)"/><path d="m667.517 90.837a1.121 1.121 0 0 0 -1.207-1.093 2.014 2.014 0 0 0 -1.534.729l-1.006-1.031a3.913 3.913 0 0 1 2.69-.98c2.112 0 2.791 1.044 2.791 3.067v3.192h-1.735v-.766h-.026a2.216 2.216 0 0 1 -1.936.917 1.965 1.965 0 0 1 -2.174-1.885c.001-2.137 2.641-2.15 4.137-2.15zm-2.326 2.087c0 .477.5.666.9.666.717 0 1.421-.377 1.421-1.156v-.39h-.566c-.561 0-1.755.088-1.755.88z" transform="translate(-572.658 -40.7)"/><path d="m676.317 86.661a1.094 1.094 0 1 1 -1.094-1.094 1.095 1.095 0 0 1 1.094 1.094zm-.151 8.032h-1.885v-6.109h1.885z" transform="translate(-572.764 -40.671)"/><path d="m677.557 94.721v-6.109h1.81v.83h.025a1.979 1.979 0 0 1 1.785-.98c1.546 0 2.262.792 2.262 2.8v3.456h-1.885v-3.139c0-1.081-.327-1.457-.981-1.457-.754 0-1.131.452-1.131 1.5v3.1z" transform="translate(-572.798 -40.7)"/><path d="m684.842 94.721v-6.109h1.81v.83h.025a1.979 1.979 0 0 1 1.785-.98c1.547 0 2.262.792 2.262 2.8v3.456h-1.885v-3.139c0-1.081-.327-1.457-.98-1.457-.754 0-1.132.452-1.132 1.5v3.1z" transform="translate(-572.87 -40.7)"/><path d="m698.686 91.667a3.4 3.4 0 1 1 -3.394-3.2 3.2 3.2 0 0 1 3.394 3.2zm-3.394 1.547a1.547 1.547 0 1 0 -1.508-1.547 1.43 1.43 0 0 0 1.508 1.546z" transform="translate(-572.94 -40.7)"/><path d="m701.257 88.614 1.547 4.148h.025l1.433-4.148h1.9l-2.413 6.109h-2l-2.526-6.109z" transform="translate(-573.012 -40.701)"/><path d="m710.756 90.837a1.121 1.121 0 0 0 -1.207-1.093 2.014 2.014 0 0 0 -1.534.729l-1-1.031a3.912 3.912 0 0 1 2.689-.98c2.112 0 2.791 1.044 2.791 3.067v3.192h-1.735v-.766h-.026a2.215 2.215 0 0 1 -1.936.917 1.965 1.965 0 0 1 -2.174-1.885c-.004-2.137 2.636-2.15 4.132-2.15zm-2.326 2.087c0 .477.5.666.9.666.717 0 1.421-.377 1.421-1.156v-.39h-.565c-.562 0-1.756.088-1.756.88z" transform="translate(-573.086 -40.7)"/><path d="m718.853 90.424-3.318 2.791h3.393v1.508h-5.428v-1.885l3.167-2.715h-3.092v-1.509h5.279z" transform="translate(-573.154 -40.701)"/><path d="m722.146 86.661a1.094 1.094 0 1 1 -1.094-1.094 1.095 1.095 0 0 1 1.094 1.094zm-.146 8.032h-1.89v-6.109h1.89z" transform="translate(-573.218 -40.671)"/><path d="m729.944 91.667a3.4 3.4 0 1 1 -3.394-3.2 3.2 3.2 0 0 1 3.394 3.2zm-3.394 1.547a1.547 1.547 0 1 0 -1.509-1.547 1.429 1.429 0 0 0 1.509 1.546z" transform="translate(-573.25 -40.7)"/><path d="m731.127 94.721v-6.109h1.81v.83h.025a1.979 1.979 0 0 1 1.785-.98c1.547 0 2.262.792 2.262 2.8v3.456h-1.885v-3.139c0-1.081-.327-1.457-.98-1.457-.755 0-1.132.452-1.132 1.5v3.1z" transform="translate(-573.328 -40.7)"/><path d="m741.665 88.462c1.182 0 2.816.729 2.816 3.268v.528h-4.374a1.4 1.4 0 0 0 1.421 1.181 1.6 1.6 0 0 0 1.345-.742l1.32.968a3.339 3.339 0 0 1 -2.577 1.206 3.212 3.212 0 1 1 .05-6.41zm.931 2.514a1.126 1.126 0 0 0 -1.169-1.156 1.256 1.256 0 0 0 -1.32 1.156z" transform="translate(-573.399 -40.7)"/></g></svg>