<svg height="21.519" viewBox="0 0 21.519 21.519" width="21.519" xmlns="http://www.w3.org/2000/svg"><g fill="#2c1d4c"><path d="m19.207 2.522h-1.513v-.63a1.891 1.891 0 0 0 -3.783 0v.63h-6.3v-.63a1.891 1.891 0 1 0 -3.783 0v.63h-1.516a2.314 2.314 0 0 0 -2.312 2.311v14.374a2.314 2.314 0 0 0 2.312 2.312h16.9a2.314 2.314 0 0 0 2.312-2.312v-14.374a2.314 2.314 0 0 0 -2.317-2.311zm-4.035-.63a.63.63 0 1 1 1.261 0v2.521a.63.63 0 1 1 -1.261 0zm-10.087 0a.63.63 0 1 1 1.261 0v2.521a.63.63 0 0 1 -1.261 0zm-3.824 2.941a1.052 1.052 0 0 1 1.051-1.05h1.513v.63a1.891 1.891 0 1 0 3.783 0v-.63h6.3v.63a1.891 1.891 0 0 0 3.783 0v-.63h1.513a1.052 1.052 0 0 1 1.051 1.051v2.815h-19zm19 14.374a1.052 1.052 0 0 1 -1.051 1.051h-16.898a1.052 1.052 0 0 1 -1.051-1.051v-10.297h19z"/><path d="m292.394 243.261h.987v6.939a.63.63 0 0 0 1.261 0v-7.57a.63.63 0 0 0 -.63-.63h-1.617a.63.63 0 0 0 0 1.261z" transform="translate(-279.502 -231.829)"/><path d="m154.286 249.565a1.265 1.265 0 0 1 -1.249-1.084 1.286 1.286 0 0 1 -.012-.177.63.63 0 0 0 -1.261 0 2.519 2.519 0 0 0 2.522 2.522 2.52 2.52 0 0 0 1.665-4.413 2.521 2.521 0 1 0 -4.14-2.379.63.63 0 0 0 1.237.243 1.261 1.261 0 1 1 1.237 1.506.63.63 0 0 0 0 1.261 1.261 1.261 0 1 1 0 2.522z" transform="translate(-145.386 -231.829)"/></g></svg>