<svg height="39.326" viewBox="0 0 46 39.326" width="46" xmlns="http://www.w3.org/2000/svg"><path d="m616.6 60.38c0-11.593 9.4-19.268 19.817-19.268s19.9 7.675 19.9 19.268c0 11.515-9.477 19.19-19.9 19.19s-19.817-7.675-19.817-19.19m27.883 0c0-5.013-3.6-8.537-8.066-8.537s-8.068 3.525-8.068 8.537 3.6 8.459 8.068 8.459 8.066-3.446 8.066-8.459" fill="#2c1d4c" transform="translate(-616.6 -40.244)"/><path d="m643.966 59.7a7.061 7.061 0 1 0 -7.06 7.059 7.06 7.06 0 0 0 7.06-7.059m-16.142 0a9.093 9.093 0 0 1 14.162-7.532c2.568 1.737 9.989-2.334 9.989-6.5a5.447 5.447 0 1 1 3.691 5.159c-3.228-1.1-10.717 2.855-9.861 7.042a9.188 9.188 0 0 1 0 3.661c-.841 4.1 6.709 8.116 9.861 7.042a5.452 5.452 0 1 1 -3.691 5.159c0-4-7.1-8.45-9.989-6.5a9.078 9.078 0 0 1 -14.162-7.532" fill="#f3cd00" fill-rule="evenodd" transform="translate(-616.878 -40.222)"/></svg>