<svg xmlns="http://www.w3.org/2000/svg" width="22.569" height="22.569" viewBox="0 0 22.569 22.569"><path d="M20.145,2.645H18.558V1.984a1.984,1.984,0,0,0-3.967,0v.661H7.979V1.984a1.984,1.984,0,1,0-3.967,0v.661H2.424A2.427,2.427,0,0,0,0,5.069V20.145a2.427,2.427,0,0,0,2.424,2.424h17.72a2.427,2.427,0,0,0,2.424-2.424V5.069A2.427,2.427,0,0,0,20.145,2.645Zm-4.232-.661a.661.661,0,0,1,1.322,0V4.628a.661.661,0,0,1-1.322,0Zm-10.579,0a.661.661,0,0,1,1.322,0V4.628a.661.661,0,0,1-1.322,0ZM1.322,5.069a1.1,1.1,0,0,1,1.1-1.1H4.011v.661a1.984,1.984,0,0,0,3.967,0V3.967h6.612v.661a1.984,1.984,0,0,0,3.967,0V3.967h1.587a1.1,1.1,0,0,1,1.1,1.1V8.023H1.322ZM21.247,20.145a1.1,1.1,0,0,1-1.1,1.1H2.424a1.1,1.1,0,0,1-1.1-1.1V9.345H21.247Z" fill="#09b5a9"/><path d="M292.425,243.322h1.035V250.6a.661.661,0,1,0,1.322,0v-7.935a.661.661,0,0,0-.661-.661h-1.7a.661.661,0,0,0,0,1.322Z" transform="translate(-278.903 -231.332)" fill="#09b5a9"/><path d="M154.409,249.935a1.327,1.327,0,0,1-1.31-1.137,1.349,1.349,0,0,1-.013-.185.661.661,0,0,0-1.322,0,2.643,2.643,0,0,0,2.645,2.645,2.643,2.643,0,0,0,1.747-4.628,2.644,2.644,0,1,0-4.342-2.5.661.661,0,1,0,1.3.255,1.323,1.323,0,1,1,1.3,1.579.661.661,0,0,0,0,1.322,1.322,1.322,0,1,1,0,2.645Z" transform="translate(-145.074 -231.332)" fill="#09b5a9"/></svg>