<svg height="25.888" viewBox="0 0 20.944 25.888" width="20.944" xmlns="http://www.w3.org/2000/svg"><g fill="#09b5a9"><path d="m67.951 4.5a10.453 10.453 0 0 0 -17.185 0 10.454 10.454 0 0 0 -1.217 9.632 8.233 8.233 0 0 0 1.517 2.505l7.6 8.931a.9.9 0 0 0 1.378 0l7.6-8.929a8.241 8.241 0 0 0 1.517-2.5 10.456 10.456 0 0 0 -1.21-9.639zm-.48 9a6.457 6.457 0 0 1 -1.194 1.956l-6.914 8.121-6.923-8.117a6.461 6.461 0 0 1 -1.2-1.961 8.647 8.647 0 0 1 1.011-7.968 8.642 8.642 0 0 1 14.207 0 8.649 8.649 0 0 1 1.013 7.969z" transform="translate(-48.886)"/><path d="m160.823 106.219a5.069 5.069 0 1 0 5.069 5.069 5.075 5.075 0 0 0 -5.069-5.069zm0 8.327a3.259 3.259 0 1 1 3.259-3.259 3.262 3.262 0 0 1 -3.259 3.259z" transform="translate(-150.351 -100.848)"/></g></svg>