<svg xmlns="http://www.w3.org/2000/svg" xmlns:xlink="http://www.w3.org/1999/xlink" width="891.707" height="411.392" viewBox="0 0 891.707 411.392"><defs><clipPath id="a"><rect width="891.704" height="411.391" fill="none"/></clipPath><clipPath id="b"><path d="M891.7,0,0,204.849V411.391Z" transform="translate(0 0)" fill="none"/></clipPath><linearGradient id="c" x1="-3.398" y1="-3.017" x2="-3.387" y2="-3.017" gradientUnits="objectBoundingBox"><stop offset="0" stop-color="#b8bec5"/><stop offset="1" stop-color="#727e89"/></linearGradient><clipPath id="d"><rect width="891.702" height="411.391" fill="none"/></clipPath><clipPath id="e"><path d="M370.83,0,0,411.391,891.7,0Z" transform="translate(0 0)" fill="none"/></clipPath><linearGradient id="f" x1="-2.56" y1="-3.525" x2="-2.552" y2="-3.525" xlink:href="#c"/><clipPath id="g"><rect width="891.702" height="411.391" fill="none" stroke="#707070" stroke-width="1"/></clipPath><clipPath id="h"><path d="M370.83,0,0,411.391,891.7,0Z" transform="translate(0 0)" fill="none" stroke="#707070" stroke-width="1"/></clipPath><filter id="i"><feOffset dy="13" input="SourceAlpha"/><feGaussianBlur stdDeviation="19" result="j"/><feFlood flood-opacity="0.659" result="k"/><feComposite operator="out" in="SourceGraphic" in2="j"/><feComposite operator="in" in="k"/><feComposite operator="in" in2="SourceGraphic"/></filter><filter id="o"><feOffset dy="13" input="SourceAlpha"/><feGaussianBlur stdDeviation="19" result="p"/><feFlood flood-opacity="0.659" result="q"/><feComposite operator="out" in="SourceGraphic" in2="p"/><feComposite operator="in" in="q"/><feComposite operator="in" in2="SourceGraphic"/></filter></defs><g opacity="0.55"><path d="M0,0V411.391L891.7,0Z" transform="translate(0 0.001)" fill="#1da5b0"/><g transform="translate(0.003 0)" style="mix-blend-mode:multiply;isolation:isolate"><g transform="translate(0)"><g clip-path="url(#a)"><g transform="translate(0 0.001)"><g transform="translate(0 0)" clip-path="url(#b)"><rect width="755.662" height="981.935" transform="matrix(0.431, 0.902, -0.902, 0.431, 725.925, -346.899)" fill="url(#c)"/></g></g></g></g></g><g transform="translate(0.005 0.001)" style="mix-blend-mode:multiply;isolation:isolate"><g transform="translate(0)"><g clip-path="url(#d)"><g transform="translate(0 0)"><g transform="translate(0 0)" clip-path="url(#e)"><rect width="962.573" height="858.521" transform="matrix(0.807, 0.59, -0.59, 0.807, 310.869, -424.921)" fill="url(#f)"/></g></g></g></g></g><g transform="translate(0.005 0.001)" style="isolation:isolate"><g transform="translate(0)"><g clip-path="url(#g)"><g transform="translate(0 0)"><g transform="translate(0 0)" clip-path="url(#h)"><rect width="962.573" height="858.521" transform="matrix(0.807, 0.59, -0.59, 0.807, 310.869, -424.921)" fill="none" stroke="#707070" stroke-width="1"/></g></g></g></g></g><g transform="matrix(1, 0, 0, 1, 0, 0)" filter="url(#i)"><path d="M369.4,0H891.7L0,411.252Z" transform="translate(0 0)" fill="#fff"/></g><g transform="translate(0.002)" style="mix-blend-mode:multiply;isolation:isolate"><g transform="translate(0)"><g clip-path="url(#a)"><g transform="translate(0 0.001)"><g transform="translate(0 0)" clip-path="url(#b)"><rect width="755.662" height="981.935" transform="matrix(0.431, 0.902, -0.902, 0.431, 725.925, -346.899)" fill="url(#c)"/></g></g></g></g></g><g transform="matrix(1, 0, 0, 1, 0, 0)" filter="url(#o)"><path d="M369.4,0H891.7L0,411.252Z" transform="translate(0 0)" fill="#fff"/></g></g></svg>